<svg width="21" height="34" viewBox="0 0 21 34" fill="none" xmlns="http://www.w3.org/2000/svg">
<path id="Vector" d="M18.8797 29.5937L18.8797 29.5937L18.8781 29.5884C18.8782 29.5887 18.8538 29.4946 18.8052 29.2629C18.761 29.052 18.7037 28.7617 18.6379 28.4033C18.5064 27.6868 18.3423 26.7053 18.1821 25.5517C17.8612 23.2401 17.559 20.2601 17.559 17.3434C17.559 14.4327 17.8924 11.5519 18.2298 9.30455C18.3983 8.1826 18.5668 7.22398 18.6946 6.49838L18.699 6.47345C18.7605 6.12413 18.8137 5.82212 18.8515 5.58705C18.8849 5.37984 18.9229 5.13207 18.9229 4.95443C18.9229 3.68506 18.522 2.63464 17.5777 2.18911C16.6949 1.77262 15.7698 2.10285 15.2356 2.56082L15.2355 2.56086C14.7622 2.96664 11.5481 6.01792 8.40266 9.00958C7.69341 9.68416 6.98641 10.3569 6.31195 10.9987C3.96605 13.2309 2.01373 15.0886 1.72896 15.3467C1.63066 15.4358 1.5532 15.5413 1.49825 15.6563L1.49234 15.6682C1.48173 15.6897 1.46682 15.7203 1.44887 15.759C1.41314 15.8359 1.36576 15.9438 1.31527 16.0757C1.21586 16.3356 1.09704 16.7081 1.03773 17.1355C0.921536 17.9729 1.02635 19.2032 2.17315 20.0398C2.7779 20.5904 5.76284 23.4924 8.73522 26.3863C9.09605 26.7376 9.45683 27.0889 9.81294 27.4357C12.4231 29.9774 14.7826 32.275 15.0727 32.5324L15.0745 32.5339C15.5211 32.9281 16.0772 33.0306 16.5495 32.9924C17.0232 32.9542 17.487 32.7734 17.8748 32.4992C18.6663 31.9397 19.2695 30.877 18.8797 29.5937Z" fill="#E78635" stroke="white" stroke-width="2" stroke-linejoin="round"/>
</svg>
