<svg width="21" height="34" viewBox="0 0 21 34" fill="none" xmlns="http://www.w3.org/2000/svg">
<path id="Vector" d="M2.12031 29.5937L2.12029 29.5937L2.12195 29.5884C2.12185 29.5887 2.14617 29.4946 2.19476 29.2629C2.239 29.052 2.29631 28.7617 2.36211 28.4033C2.49364 27.6868 2.65768 26.7053 2.81786 25.5517C3.13882 23.2401 3.44105 20.2601 3.44105 17.3434C3.44105 14.4327 3.10758 11.5519 2.77017 9.30455C2.60173 8.1826 2.43319 7.22398 2.3054 6.49838L2.30101 6.47345C2.23949 6.12413 2.1863 5.82212 2.14845 5.58705C2.11509 5.37984 2.07713 5.13207 2.07713 4.95443C2.07713 3.68506 2.47802 2.63464 3.42233 2.18911C4.30507 1.77262 5.23019 2.10285 5.76445 2.56082L5.76449 2.56086C6.2378 2.96664 9.45188 6.01792 12.5973 9.00958C13.3066 9.68416 14.0136 10.3569 14.688 10.9987C17.034 13.2309 18.9863 15.0886 19.271 15.3467C19.3693 15.4358 19.4468 15.5413 19.5017 15.6563L19.5077 15.6682C19.5183 15.6897 19.5332 15.7203 19.5511 15.759C19.5869 15.8359 19.6342 15.9438 19.6847 16.0757C19.7841 16.3356 19.903 16.7081 19.9623 17.1355C20.0785 17.9729 19.9736 19.2032 18.8268 20.0398C18.2221 20.5904 15.2372 23.4924 12.2648 26.3863C11.904 26.7376 11.5432 27.0889 11.1871 27.4357C8.57692 29.9774 6.21744 32.275 5.92726 32.5324L5.92548 32.5339C5.47888 32.9281 4.92283 33.0306 4.45051 32.9924C3.97676 32.9542 3.51303 32.7734 3.12517 32.4992C2.33369 31.9397 1.73048 30.877 2.12031 29.5937Z" fill="#E78635" stroke="white" stroke-width="2" stroke-linejoin="round"/>
</svg>
