<svg width="32" height="38" viewBox="0 0 38 42" fill="none" xmlns="http://www.w3.org/2000/svg">
    <path
        d="M32.5771 1.02588L32.5726 1.02666L32.1822 1.09384C31.9921 1.09776 31.8084 1.12994 31.6361 1.18556L11.638 4.58515C11.6366 4.58538 11.6352 4.58561 11.6338 4.58584C11.5696 4.59645 11.5099 4.61015 11.4551 4.62518H10.888C9.82576 4.62518 9.00003 5.49102 9.00003 6.52446V28.3946C8.46846 28.2482 7.90942 28.1702 7.33335 28.1702C3.82153 28.1702 1 31.0561 1 34.5851C1 38.1142 3.82155 41 7.33335 41C10.8451 41 13.6667 38.1141 13.6667 34.5851C13.6667 34.386 13.6576 34.1898 13.6404 33.9974C13.6577 33.8939 13.6667 33.7876 13.6667 33.6787V15.509L30.3334 12.5182V22.9784C29.8022 22.8319 29.2432 22.7533 28.6667 22.7533C25.1544 22.7533 22.3333 25.6414 22.3333 29.1701C22.3333 32.6972 25.1547 35.5851 28.6667 35.5851C32.1787 35.5851 35 32.6971 35 29.1701C35 28.9706 34.9909 28.7742 34.9736 28.5809C34.991 28.4773 35 28.3709 35 28.262V2.99271C35 2.13451 34.4297 1.3931 33.6286 1.16535C33.3 1.0089 32.9337 0.966214 32.5771 1.02588Z"
        fill="#E78635" stroke="white" stroke-width="2" />
</svg>