<svg width="32" height="38" viewBox="0 0 38 42" fill="none" xmlns="http://www.w3.org/2000/svg">
    <path
        d="M32.5771 1.02588L32.5726 1.02666L32.1822 1.09384C31.9921 1.09776 31.8084 1.12994 31.6361 1.18556L11.638 4.58515C11.6366 4.58538 11.6352 4.58561 11.6338 4.58585C11.5696 4.59645 11.5099 4.61015 11.4551 4.62518H10.888C9.82576 4.62518 9.00003 5.49102 9.00003 6.52446V28.3946C8.46846 28.2482 7.90942 28.1702 7.33335 28.1702C3.82153 28.1702 1 31.0561 1 34.5851C1 38.1142 3.82155 41 7.33335 41C10.8451 41 13.6667 38.1141 13.6667 34.5851C13.6667 34.386 13.6576 34.1898 13.6404 33.9974C13.6577 33.8939 13.6667 33.7876 13.6667 33.6787V15.509L30.3334 12.5182V22.9784C29.8022 22.8319 29.2432 22.7533 28.6667 22.7533C25.1544 22.7533 22.3333 25.6414 22.3333 29.1701C22.3333 32.6972 25.1547 35.5851 28.6667 35.5851C32.1787 35.5851 35 32.6971 35 29.1701C35 28.9706 34.9909 28.7742 34.9736 28.5809C34.991 28.4772 35 28.3709 35 28.262V2.99271C35 2.13451 34.4297 1.3931 33.6286 1.16535C33.3 1.00891 32.9337 0.966214 32.5771 1.02588Z"
        fill="#C8C8C8" stroke="white" stroke-width="2" />
    <path
        d="M18.2549 21L4.56852 7.3136C4.2045 6.94958 4 6.45587 4 5.94106C4 5.68616 4.05021 5.43375 4.14775 5.19825C4.2453 4.96275 4.38828 4.74877 4.56852 4.56852C4.74877 4.38828 4.96275 4.2453 5.19825 4.14775C5.43375 4.05021 5.68616 4 5.94106 4C6.45587 4 6.94958 4.2045 7.3136 4.56852L21 18.2549L34.6864 4.56852C34.8666 4.38828 35.0806 4.2453 35.3161 4.14775C35.5516 4.05021 35.804 4 36.0589 4C36.3138 4 36.5662 4.05021 36.8018 4.14775C37.0373 4.2453 37.2512 4.38828 37.4315 4.56852C37.6117 4.74877 37.7547 4.96275 37.8522 5.19825C37.9498 5.43375 38 5.68616 38 5.94106C38 6.19597 37.9498 6.44838 37.8522 6.68388C37.7547 6.91938 37.6117 7.13336 37.4315 7.3136L23.7451 21L37.4315 34.6864C37.7955 35.0504 38 35.5441 38 36.0589C38 36.5737 37.7955 37.0675 37.4315 37.4315C37.0675 37.7955 36.5737 38 36.0589 38C35.5441 38 35.0504 37.7955 34.6864 37.4315L21 23.7451L7.3136 37.4315C6.94958 37.7955 6.45587 38 5.94106 38C5.42626 38 4.93254 37.7955 4.56852 37.4315C4.2045 37.0675 4 36.5737 4 36.0589C4 35.5441 4.2045 35.0504 4.56852 34.6864L18.2549 21Z"
        fill="#707070" />
</svg>